<?xml version="1.0" standalone="no"?><!DOCTYPE svg PUBLIC "-//W3C//DTD SVG 1.1//EN" "http://www.w3.org/Graphics/SVG/1.1/DTD/svg11.dtd"><svg t="1669859630346" class="icon" viewBox="0 0 1024 1024" version="1.1" xmlns="http://www.w3.org/2000/svg" p-id="957" xmlns:xlink="http://www.w3.org/1999/xlink" width="200" height="200"><path d="M656.6912 318.1568c0-112.9472-91.904-204.8512-204.8512-204.8512S246.9376 205.2096 246.9376 318.1568c0 72.6528 38.0928 136.6016 95.2832 172.9536-123.0336 44.8512-211.1488 163.072-211.1488 301.4144 0 14.1312 11.4688 25.6 25.6 25.6s25.6-11.4688 25.6-25.6c0-148.6336 120.9344-269.5168 269.5168-269.5168 112.9984 0 204.9024-91.904 204.9024-204.8512zM451.7888 471.808c-84.736 0-153.6512-68.9152-153.6512-153.6512s68.9152-153.6512 153.6512-153.6512 153.6512 68.9152 153.6512 153.6512c0.0512 84.736-68.9152 153.6512-153.6512 153.6512zM691.2 605.7984c-45.312 0-82.176 36.864-82.176 82.176 0 45.312 36.864 82.176 82.176 82.176 45.312 0 82.176-36.864 82.176-82.176 0-45.2608-36.864-82.176-82.176-82.176z m0 113.2032c-17.1008 0-30.976-13.8752-30.976-30.976s13.8752-30.976 30.976-30.976 30.976 13.8752 30.976 30.976c0 17.0496-13.8752 30.976-30.976 30.976z" fill="#252424" p-id="958"></path><path d="M879.6672 720.0768a32.7424 32.7424 0 0 1-9.216-11.3664c-5.0688-10.1888-3.9936-23.04 2.816-33.5872 2.4064-3.7376 5.1712-6.6048 8.448-8.8576 18.5344-12.6464 25.7024-36.5056 17.4592-57.9584a221.93664 221.93664 0 0 0-21.9648-42.752c-13.056-19.8144-38.144-27.5456-59.5968-18.3296-4.608 1.9968-9.6256 2.8672-14.7456 2.6112-15.872-0.768-29.3888-13.1584-31.4368-28.8768-0.2048-1.536-0.3072-3.072-0.3072-4.608 0.1536-23.1936-16.4864-43.1104-39.4752-47.36-19.8656-3.6864-40.5504-4.608-60.7232-2.7648-23.9616 2.1504-42.752 21.7088-43.7248 45.4656-0.256 6.7584-2.6624 13.312-6.912 18.8928-7.7312 10.1888-21.3504 15.0528-33.9968 12.0832-3.2256-0.768-6.2976-1.9968-9.0624-3.584-20.5824-11.8784-47.104-6.656-61.7984 12.1344a222.43328 222.43328 0 0 0-28.5696 48.0256c-9.5232 21.9136-1.6896 47.9744 18.3296 60.5184 4.4032 2.7648 7.9872 6.4512 10.7008 10.9568 8.3456 13.824 5.0688 32.6656-7.3216 42.9056-1.1264 0.9216-2.304 1.792-3.5328 2.56-19.8144 12.4416-27.8016 38.0416-18.6368 59.4944 6.5536 15.2576 14.7968 29.7472 24.5248 43.1616 13.4656 18.4832 38.0928 25.1904 58.5728 15.9744 5.0176-2.2528 10.4448-3.2256 16.0256-2.816 11.6224 0.8192 22.5792 8.7552 27.904 20.1728 1.792 3.8912 2.7648 7.68 3.0208 11.52 1.2288 22.3232 18.432 41.0112 40.96 44.4416 11.1104 1.6896 22.4256 2.56 33.7408 2.56 9.2672 0 18.5856-0.6144 27.7504-1.7408 21.6064-2.7136 38.8096-19.968 41.7792-41.9328 0.7168-5.3248 2.7136-10.2912 5.888-14.7456 7.0144-9.9328 19.6096-15.2064 32.0512-13.4656 3.2768 0.4608 6.2464 1.28 9.0624 2.6112 19.7632 9.0112 43.2128 3.2768 57.088-13.9264 12.0832-15.0528 22.1696-31.5904 30.0032-49.2032 9.0112-20.2752 2.7648-44.1856-15.104-58.2144z m-55.0912 11.4176c5.4784 11.008 13.056 20.4288 22.4768 28.0576-5.5808 12.0832-12.544 23.552-20.7872 34.0992-6.5536-2.7136-13.4656-4.5568-20.6336-5.5296-31.1808-4.352-62.9248 9.2672-80.8448 34.6112a83.71712 83.71712 0 0 0-14.5408 35.7376c-14.2336 1.5872-28.7744 1.3824-42.8544-0.5632-0.8704-9.2672-3.3792-18.432-7.424-27.1872-13.2096-28.5184-40.3456-47.5648-70.7584-49.7152-12.9536-0.8704-26.0608 1.1776-38.0416 6.0928a172.7744 172.7744 0 0 1-16.5376-28.9792c2.2528-1.4848 4.4032-3.1232 6.5024-4.864 32.1024-26.4192 40.1408-73.216 18.688-108.8512-6.4-10.6496-14.848-19.5584-25.1392-26.4704a170.496 170.496 0 0 1 19.5584-33.024c6.3488 3.3792 13.1584 5.9392 20.2752 7.6288 32.5632 7.7312 66.56-4.4544 86.6304-30.976 9.8816-13.1072 15.7696-28.416 17.0496-44.4416 13.9776-1.0752 28.0576-0.4096 41.7792 1.9456 0.1024 2.8672 0.3072 5.7344 0.6656 8.6016 5.1712 39.9872 39.4752 71.5776 79.7696 73.472 12.0832 0.6144 23.8592-1.3312 35.0208-5.7344 6.144 9.5232 11.3152 19.6096 15.4112 30.1056-8.0384 5.8368-14.9504 13.2096-20.5824 21.9136-16.5888 25.4464-18.7392 57.7536-5.6832 84.0704z" fill="#252424" p-id="959"></path></svg>